# xmcd
#
# Track frame offsets: 
#        150
#        17127
#        40452
#        68775
#        86732
#        101072
#        121140
#        134805
#        151740
#
# Disc length: 2316 seconds
#
# Revision: 1
# Processed by: cddbd v1.5.2PL0 Copyright (c) Steve Scherf et al.
# Submitted via: ExactAudioCopyFreeDBPlugin 1.0
#
DISCID=78090a09
DTITLE=安部恭弘 - SLIT
DYEAR=1992
DGENRE=JPop
TTITLE0=Thrill Down
TTITLE1=アイリーン(Irene) 
TTITLE2=My Dear
TTITLE3=New York Night
TTITLE4=Double Imagination
TTITLE5=Heart Trick
TTITLE6='Cause I Love You
TTITLE7=砂色の夜明け
TTITLE8=君の愛がすべて
EXTD=
EXTT0=
EXTT1=
EXTT2=
EXTT3=
EXTT4=
EXTT5=
EXTT6=
EXTT7=
EXTT8=
PLAYORDER=
